<svg xmlns="http://www.w3.org/2000/svg" viewBox="0 0 64 64">
  <rect width="64" height="64" rx="10" fill="#262626"/>
  <g fill="#e0345a">
    <!-- horns: two curved spiral horns -->
    <path d="M40 14 C 41 10, 43 8, 45 6 C 43.5 10, 43 13, 42.5 16 Z"/>
    <path d="M44 13 C 45.5 9.5, 48 7, 50 5.5 C 48.5 10, 48 13, 47 16 Z"/>
    <!-- head -->
    <path d="M38 17 C 36 18, 35 20, 36 22 C 37 23, 39 24, 41 23 L 44 22 L 45 19 L 43 17 Z"/>
    <!-- body + leaping pose: front legs extended forward, hind legs kicked back -->
    <path d="M36 22
             C 30 23, 24 24, 20 27
             C 17 29, 14 32, 12 35
             C 11 37, 11 38, 13 38
             C 14 38, 16 37, 18 36
             C 17 38, 16 40, 16 42
             C 16 43, 17 43, 18 42
             C 19 41, 20 39, 21 37
             C 23 36, 25 35, 27 35
             C 28 36, 28 38, 27 40
             C 26 42, 26 44, 27 44
             C 28 44, 30 42, 31 40
             C 32 38, 33 36, 34 34
             C 36 33, 38 32, 40 31
             C 42 31, 43 32, 44 33
             C 45 34, 47 34, 47 33
             C 47 31, 46 29, 44 28
             C 46 27, 48 26, 49 24
             C 50 22, 50 21, 48 21
             C 46 21, 44 22, 42 23
             L 40 22 Z"/>
    <!-- tail flick -->
    <path d="M48 22 L 52 21 L 51 24 Z"/>
  </g>
</svg>
