<svg width="32" height="32" viewBox="0 0 32 32" fill="none" xmlns="http://www.w3.org/2000/svg">
<mask id="mask0_101_3916" style="mask-type:alpha" maskUnits="userSpaceOnUse" x="0" y="0" width="32" height="32">
<rect width="32" height="32" fill="#D9D9D9"/>
</mask>
<g mask="url(#mask0_101_3916)">
<path fill-rule="evenodd" clip-rule="evenodd" d="M20.7823 5.71214C20.3228 5.84762 19.8519 6.00242 19.439 6.17659C17.9561 5.42196 16.2117 5.01554 14.1997 5.2962C14.1997 5.2962 17.049 4.40599 20.7823 5.71214M32 17.6729C30.7672 14.9445 29.4239 12.787 28.0458 11.0938C27.284 11.355 26.1791 11.7905 25.2081 12.3129C25.7896 13.3772 26.0745 14.1317 26.0745 14.1317C11.0078 14.035 0 27.5125 0 27.5125C13.9095 20.8559 26.7665 22.9168 26.7665 22.9168L25.3883 25.084L28.5226 22.5299L23.7485 19.4531C27.912 16.1442 32 17.6729 32 17.6729M22.7471 6.57422C22.1133 6.76772 21.4446 7.02896 21.0375 7.20309C22.0959 8.01589 22.9855 8.99297 23.7066 9.96052C24.2474 9.64121 25.0324 9.22522 25.9395 8.84788C24.858 7.87075 23.7822 7.13535 22.7471 6.57422" fill="#D71E48"/>
</g>
</svg>
